<svg width="479" height="472" viewBox="0 0 479 472" fill="none" xmlns="http://www.w3.org/2000/svg">
<ellipse cx="239.5" cy="236" rx="239.5" ry="236" fill="#D9D9D9"/>
<g clip-path="url(#clip0_46_12)">
<path d="M475.317 46.0197H4.68307C4.50191 46.0197 4.32817 45.9465 4.20007 45.8162C4.07197 45.6859 4 45.5091 4 45.3248C4 45.1404 4.07197 44.9637 4.20007 44.8333C4.32817 44.703 4.50191 44.6298 4.68307 44.6298H475.317C475.498 44.6298 475.672 44.703 475.8 44.8333C475.928 44.9637 476 45.1404 476 45.3248C476 45.5091 475.928 45.6859 475.8 45.8162C475.672 45.9465 475.498 46.0197 475.317 46.0197Z" fill="#CACACA"/>
<path d="M20.0575 36.2899C24.2072 36.2899 27.5712 32.8671 27.5712 28.6449C27.5712 24.4228 24.2072 21 20.0575 21C15.9077 21 12.5437 24.4228 12.5437 28.6449C12.5437 32.8671 15.9077 36.2899 20.0575 36.2899Z" fill="#3F3D56"/>
<path d="M46.0141 36.2899C50.1638 36.2899 53.5278 32.8671 53.5278 28.6449C53.5278 24.4228 50.1638 21 46.0141 21C41.8643 21 38.5003 24.4228 38.5003 28.6449C38.5003 32.8671 41.8643 36.2899 46.0141 36.2899Z" fill="#3F3D56"/>
<path d="M71.9706 36.2899C76.1204 36.2899 79.4844 32.8671 79.4844 28.6449C79.4844 24.4228 76.1204 21 71.9706 21C67.8209 21 64.4569 24.4228 64.4569 28.6449C64.4569 32.8671 67.8209 36.2899 71.9706 36.2899Z" fill="#3F3D56"/>
<path d="M299.641 116.78H180.359C178.869 116.78 177.44 116.178 176.386 115.106C175.333 114.034 174.741 112.58 174.741 111.064C174.741 109.548 175.333 108.094 176.386 107.022C177.44 105.95 178.869 105.347 180.359 105.347H299.641C301.131 105.347 302.56 105.95 303.614 107.022C304.667 108.094 305.259 109.548 305.259 111.064C305.259 112.58 304.667 114.034 303.614 115.106C302.56 116.178 301.131 116.78 299.641 116.78Z" fill="#E49696"/>
<path d="M280.409 97.2124H199.591C198.102 97.2108 196.675 96.6078 195.622 95.5359C194.57 94.4641 193.979 93.011 193.979 91.496C193.979 89.981 194.57 88.528 195.622 87.4561C196.675 86.3842 198.102 85.7812 199.591 85.7795H280.409C281.899 85.7795 283.328 86.3818 284.382 87.4539C285.435 88.5259 286.027 89.9799 286.027 91.496C286.027 93.0121 285.435 94.4661 284.382 95.5381C283.328 96.6102 281.899 97.2124 280.409 97.2124Z" fill="#E49696"/>
<path d="M88.5176 278.306C116.057 278.306 138.382 255.592 138.382 227.572C138.382 199.552 116.057 176.837 88.5176 176.837C60.9785 176.837 38.6536 199.552 38.6536 227.572C38.6536 255.592 60.9785 278.306 88.5176 278.306Z" fill="#E0AFAF"/>
<path d="M410.926 278.306C438.465 278.306 460.79 255.592 460.79 227.572C460.79 199.552 438.465 176.837 410.926 176.837C383.387 176.837 361.062 199.552 361.062 227.572C361.062 255.592 383.387 278.306 410.926 278.306Z" fill="#E0AFAF"/>
<path d="M240.159 278.306C267.698 278.306 290.023 255.592 290.023 227.572C290.023 199.552 267.698 176.837 240.159 176.837C212.62 176.837 190.295 199.552 190.295 227.572C190.295 255.592 212.62 278.306 240.159 278.306Z" fill="#E0AFAF"/>
<path d="M435.16 249.561C431.231 247.454 427.13 245.698 422.902 244.312L422.363 238.245L400.501 235.848L397.722 243.603L389.877 246.599C389.596 246.707 389.328 246.849 389.08 247.021H389.071C387.787 247.131 386.55 247.566 385.472 248.286C384.742 248.761 384.092 249.354 383.549 250.042C384.61 250.86 385.713 251.62 386.849 252.345L386.899 252.371C387.223 252.573 387.554 252.776 387.886 252.97C388.483 253.333 389.097 253.679 389.711 254.008L390.1 254.21C390.996 254.683 391.908 255.13 392.846 255.544C393.036 255.628 393.244 255.712 393.435 255.797C393.451 255.805 393.459 255.805 393.476 255.814C393.916 255.999 394.355 256.176 394.803 256.345C396.274 256.917 397.775 257.407 399.298 257.814C403.186 258.868 407.192 259.401 411.216 259.4C412.684 259.4 414.135 259.332 415.571 259.189C418.849 258.881 422.085 258.216 425.224 257.206C425.232 257.206 425.241 257.198 425.249 257.198C427.232 256.555 429.169 255.774 431.047 254.86C431.054 254.852 431.071 254.852 431.08 254.843C431.503 254.641 431.909 254.421 432.324 254.21L432.523 254.109C432.855 253.932 433.187 253.755 433.518 253.569C434.348 253.105 435.16 252.616 435.964 252.092C436.188 251.957 436.404 251.814 436.628 251.662C436.943 251.451 437.258 251.232 437.565 251.004C436.794 250.497 435.99 250.016 435.16 249.561Z" fill="#470000"/>
<path d="M410.574 232.012C419.27 232.012 426.319 224.84 426.319 215.992C426.319 207.144 419.27 199.972 410.574 199.972C401.878 199.972 394.828 207.144 394.828 215.992C394.828 224.84 401.878 232.012 410.574 232.012Z" fill="#A04F4F"/>
<path d="M400.003 208.189C401.632 210.151 404.391 210.705 406.935 210.932C412.103 211.393 419.617 210.645 424.667 209.459C425.028 213.014 424.045 216.846 426.103 219.77C427.067 216.23 427.628 212.589 427.774 208.919C427.928 207.344 427.726 205.754 427.183 204.271C426.893 203.528 426.404 202.882 425.772 202.408C425.139 201.933 424.388 201.649 423.605 201.587C424.778 200.681 426.152 200.084 427.605 199.846L422.606 197.29L423.89 195.949L414.839 195.386L417.46 193.691C413.515 193.139 409.523 193.011 405.551 193.308C403.706 193.447 401.778 193.711 400.283 194.798C398.789 195.886 397.925 198.047 398.853 199.643C397.692 199.837 396.598 200.33 395.676 201.074C394.754 201.819 394.034 202.79 393.584 203.897C393.015 205.656 392.878 207.53 393.184 209.356C393.525 212.285 394.194 215.164 395.178 217.939L400.003 208.189Z" fill="#2F2E41"/>
<path d="M242.925 200.103C246.601 200.103 249.582 197.07 249.582 193.329C249.582 189.588 246.601 186.555 242.925 186.555C239.248 186.555 236.267 189.588 236.267 193.329C236.267 197.07 239.248 200.103 242.925 200.103Z" fill="#2F2E41"/>
<path d="M237.149 196.853C236.307 196.053 235.684 195.044 235.34 193.925C234.997 192.806 234.944 191.615 235.188 190.469C235.432 189.324 235.964 188.262 236.732 187.388C237.5 186.514 238.478 185.858 239.57 185.484C238.655 185.62 237.779 185.948 236.996 186.448C236.213 186.948 235.54 187.608 235.022 188.387C234.504 189.165 234.15 190.045 233.985 190.971C233.819 191.896 233.844 192.846 234.06 193.761C234.275 194.675 234.675 195.534 235.234 196.283C235.794 197.032 236.5 197.654 237.309 198.109C238.118 198.565 239.011 198.844 239.932 198.929C240.852 199.014 241.78 198.903 242.656 198.602C241.668 198.751 240.659 198.671 239.706 198.368C238.752 198.065 237.878 197.547 237.149 196.853L237.149 196.853Z" fill="#2F2E41"/>
<path d="M243.059 236.731C253.86 236.731 262.616 227.822 262.616 216.833C262.616 205.844 253.86 196.935 243.059 196.935C232.258 196.935 223.502 205.844 223.502 216.833C223.502 227.822 232.258 236.731 243.059 236.731Z" fill="#2F2E41"/>
<path d="M225.661 205.877C229.031 202.022 233.741 199.649 238.798 199.259C243.855 198.87 248.862 200.495 252.764 203.791C252.604 203.636 252.445 203.48 252.28 203.33C248.417 199.809 243.337 197.993 238.158 198.283C232.979 198.572 228.125 200.943 224.664 204.874C221.203 208.804 219.419 213.973 219.703 219.242C219.988 224.511 222.318 229.45 226.181 232.971C226.219 233.005 226.256 233.039 226.293 233.072C226.459 233.222 226.63 233.364 226.8 233.508C223.125 229.952 220.953 225.082 220.741 219.927C220.528 214.772 222.293 209.734 225.662 205.877H225.661Z" fill="#2F2E41"/>
<path d="M242.893 236.562C249.849 236.562 255.489 230.825 255.489 223.747C255.489 216.669 249.849 210.932 242.893 210.932C235.937 210.932 230.298 216.669 230.298 223.747C230.298 230.825 235.937 236.562 242.893 236.562Z" fill="#A04F4F"/>
<path d="M265.432 257.138V261.437C264.659 261.94 263.877 262.411 263.08 262.857C262.761 263.036 262.442 263.206 262.123 263.377L261.932 263.474C261.533 263.677 261.142 263.888 260.736 264.082C260.728 264.09 260.711 264.09 260.704 264.099C258.899 264.977 257.036 265.728 255.13 266.346C255.122 266.346 255.114 266.354 255.106 266.354C252.088 267.325 248.976 267.965 245.824 268.261C244.445 268.398 243.049 268.463 241.638 268.463C237.77 268.465 233.918 267.952 230.18 266.938C228.273 266.428 226.403 265.786 224.582 265.015C224.566 265.007 224.558 265.007 224.542 264.999C224.359 264.918 224.159 264.837 223.976 264.756C223.075 264.358 222.198 263.928 221.337 263.474L220.962 263.279C220.045 262.784 219.144 262.265 218.259 261.705L218.211 261.681C216.848 260.817 215.533 259.877 214.272 258.866C213.626 258.363 213.004 257.835 212.398 257.284C212.079 257.008 211.76 256.716 211.457 256.432C210.292 255.337 209.188 254.178 208.148 252.959C208.286 252.114 208.488 251.282 208.754 250.469L208.762 250.461C208.81 250.322 208.866 250.187 208.929 250.055C208.973 249.938 209.024 249.825 209.081 249.714C210.508 246.996 213.092 246.323 216.297 246.177C218.107 246.096 220.109 246.185 222.222 246.161C223.338 246.153 224.494 246.112 225.651 246.006C232.947 245.333 231.623 240.952 231.95 238.591C232.277 236.303 234.302 238.283 234.438 238.413L234.446 238.421C238.574 240.387 243.142 241.202 247.682 240.782C248.464 240.684 249.245 240.628 250.027 240.603C252.084 240.579 251.637 241.179 250.928 241.674C250.583 241.905 250.224 242.111 249.851 242.291C249.851 242.291 249.524 244.319 249.189 247.353C248.871 250.258 258.925 251.264 260.895 251.897H260.903C262.027 252.317 263.03 253.017 263.821 253.932C264.612 254.847 265.166 255.949 265.432 257.138Z" fill="#470000"/>
<path d="M230.132 222.904C230.681 222.904 231.126 222.074 231.126 221.049C231.126 220.025 230.681 219.195 230.132 219.195C229.583 219.195 229.137 220.025 229.137 221.049C229.137 222.074 229.583 222.904 230.132 222.904Z" fill="#A04F4F"/>
<path d="M255.655 222.904C256.204 222.904 256.649 222.074 256.649 221.049C256.649 220.025 256.204 219.195 255.655 219.195C255.106 219.195 254.661 220.025 254.661 221.049C254.661 222.074 255.106 222.904 255.655 222.904Z" fill="#A04F4F"/>
<path d="M72.5644 231.125L74.9572 239.558L105.535 239.009L105.267 223.557C105.055 211.326 96.5596 200.777 84.5385 200.992C72.5175 201.208 64.874 211.548 65.086 223.779L66.8324 239.704L71.8179 239.614L72.5644 231.125Z" fill="#2F2E41"/>
<path d="M85.905 237.022C93.4821 237.022 99.6246 230.772 99.6246 223.063C99.6246 215.353 93.4821 209.104 85.905 209.104C78.3278 209.104 72.1853 215.353 72.1853 223.063C72.1853 230.772 78.3278 237.022 85.905 237.022Z" fill="#B46060"/>
<path d="M100.924 213.261C100.906 212.192 100.577 211.152 99.9789 210.273C99.9157 210.183 99.8523 210.099 99.7888 210.015C99.2805 209.355 98.629 208.824 97.8853 208.462C97.1416 208.101 96.3259 207.919 95.5018 207.931L85.6409 208.112L75.7863 208.286C74.3745 208.315 73.0314 208.911 72.0509 209.945C71.0704 210.979 70.5324 212.366 70.5546 213.803L72.901 218.61L74.2517 221.371L74.4737 221.242C83.0028 216.364 86.4906 216.3 97.7786 220.836L98.0068 220.926L98.901 218.597L100.93 213.312L100.924 213.261Z" fill="#2F2E41"/>
<path d="M113.214 244.831C110.271 241.844 100.315 243.031 100.315 243.031L74.0363 244.715C68.2082 245.154 62.9574 249.903 61.0551 251.825C61.3592 252.129 61.6702 252.426 61.9877 252.709C67.8275 257.99 75.1683 261.242 82.9464 261.994C90.7245 262.746 98.5357 260.958 105.248 256.89C108.064 255.181 111.667 253.131 113.924 250.737C114.818 249.795 115.534 249.814 116.327 248.781C115.733 247.158 114.642 245.773 113.214 244.831Z" fill="#470000"/>
<path d="M88.5176 418C116.057 418 138.382 395.285 138.382 367.266C138.382 339.246 116.057 316.531 88.5176 316.531C60.9785 316.531 38.6536 339.246 38.6536 367.266C38.6536 395.285 60.9785 418 88.5176 418Z" fill="#E0AFAF"/>
<path d="M410.926 418C438.465 418 460.79 395.285 460.79 367.266C460.79 339.246 438.465 316.531 410.926 316.531C383.387 316.531 361.062 339.246 361.062 367.266C361.062 395.285 383.387 418 410.926 418Z" fill="#E0AFAF"/>
<path d="M240.159 418C267.698 418 290.023 395.285 290.023 367.266C290.023 339.246 267.698 316.531 240.159 316.531C212.62 316.531 190.295 339.246 190.295 367.266C190.295 395.285 212.62 418 240.159 418Z" fill="#E0AFAF"/>
<path d="M87.7013 374.543C95.3147 374.543 101.487 368.263 101.487 360.517C101.487 352.771 95.3147 346.491 87.7013 346.491C80.0879 346.491 73.916 352.771 73.916 360.517C73.916 368.263 80.0879 374.543 87.7013 374.543Z" fill="#AD5959"/>
<path d="M74.6596 364.905C74.6596 364.905 75.8309 362.812 75.5586 355.821C75.2863 348.83 85.7497 352.784 94.4931 352.117C103.236 351.45 101.386 363.789 101.386 363.789C101.386 363.789 102.016 363.056 103.367 357.101C104.717 351.145 101.651 345.211 101.651 345.211C100.748 338.953 95.8809 340.958 95.8809 340.958C98.2248 341.887 97.7746 343.872 97.7746 343.872C95.7906 340.333 90.9237 342.338 90.9237 342.338C84.4325 338.194 77.8538 343.652 77.8538 343.652C70.0122 345.462 74.611 351.807 74.611 351.807C66.7249 355.862 74.6596 364.905 74.6596 364.905Z" fill="#2F2E41"/>
<path d="M110.703 393.435C106.774 391.329 102.672 389.572 98.4449 388.187L97.9053 382.119L76.0434 379.723L73.265 387.478L65.4193 390.473C65.1384 390.582 64.871 390.723 64.6227 390.895H64.6142C63.3297 391.006 62.0926 391.441 61.0151 392.161C60.2843 392.636 59.6344 393.229 59.0913 393.916C60.1528 394.735 61.2553 395.494 62.3916 396.22L62.4417 396.245C62.7652 396.448 63.0971 396.65 63.4284 396.845C64.0259 397.207 64.6396 397.553 65.2533 397.882L65.6432 398.085C66.5387 398.557 67.4512 399.005 68.3884 399.418C68.579 399.503 68.7867 399.587 68.9773 399.671C68.9936 399.68 69.0021 399.68 69.0183 399.688C69.4583 399.874 69.8976 400.051 70.3454 400.22C71.8166 400.792 73.3173 401.282 74.8406 401.688C78.7285 402.742 82.735 403.276 86.7586 403.275C88.2269 403.275 89.6782 403.207 91.1133 403.064C94.3916 402.756 97.6281 402.091 100.767 401.081C100.775 401.081 100.784 401.072 100.792 401.072C102.775 400.429 104.712 399.648 106.589 398.735C106.597 398.726 106.614 398.726 106.623 398.718C107.046 398.515 107.452 398.296 107.866 398.085L108.065 397.984C108.397 397.806 108.729 397.629 109.061 397.444C109.89 396.98 110.703 396.49 111.507 395.967C111.731 395.832 111.947 395.688 112.171 395.537C112.486 395.326 112.801 395.106 113.108 394.878C112.337 394.372 111.532 393.891 110.703 393.435Z" fill="#470000"/>
<path d="M259.118 390.468L250.818 389.701L245.852 386.01C245.853 386.003 245.85 385.996 245.846 385.991L245.833 385.997L245.634 385.847L245.609 386.082L237.227 389.361L228.615 387.34L225.635 390.62L212.365 395.099C211.726 395.531 211.165 396.071 210.705 396.696L210.706 396.705C211.263 397.148 211.836 397.586 212.416 398C213.731 398.967 215.098 399.86 216.51 400.673C219.947 402.667 223.621 404.203 227.442 405.244C227.788 405.341 228.134 405.433 228.48 405.517C229.083 405.667 229.691 405.811 230.3 405.928C231.53 406.189 232.776 406.393 234.036 406.541C235.888 406.77 237.752 406.883 239.617 406.88C240.893 406.88 242.155 406.83 243.404 406.73C245.6 406.55 247.779 406.213 249.928 405.72C250.005 405.7 250.082 405.687 250.158 405.661C253.449 404.893 256.646 403.761 259.693 402.284C260.161 402.055 260.629 401.821 261.09 401.58C262.225 400.986 263.327 400.347 264.397 399.663C265.204 399.154 265.992 398.613 266.761 398.052C267.235 397.707 267.703 397.355 268.164 396.99L268.115 396.882C267.296 395.107 266.034 393.581 264.456 392.455C262.877 391.33 261.037 390.645 259.118 390.468Z" fill="#470000"/>
<path d="M251.19 348.326C250.222 347.35 249.129 346.51 247.941 345.829C240.604 341.708 232.588 341.636 225.949 345.627C224.299 346.616 222.791 347.834 221.47 349.245C217.745 353.2 215.659 358.463 215.645 363.941V380.188H257.412V362.278C257.412 357.48 254.817 351.925 251.19 348.326Z" fill="#2F2E41"/>
<path d="M235.703 379.745C244.035 379.745 250.788 372.873 250.788 364.396C250.788 355.92 244.035 349.048 235.703 349.048C227.372 349.048 220.618 355.92 220.618 364.396C220.618 372.873 227.372 379.745 235.703 379.745Z" fill="#AD5959"/>
<path d="M251.177 350.464C251.146 350.138 251.033 349.825 250.847 349.556C250.662 349.288 250.411 349.073 250.12 348.932C240.681 344.447 231.108 344.564 221.681 349.284H221.509L221.451 349.526C219.593 364.091 219.855 364.41 219.971 364.541C220.152 364.751 220.378 364.918 220.631 365.03C220.863 365.134 221.114 365.187 221.368 365.186H242.885L242.937 364.938C243.186 363.635 243.507 362.346 243.898 361.079C244.755 362.351 245.545 363.67 246.262 365.03L246.352 365.186H250.536C250.616 365.186 250.695 365.18 250.774 365.167C251.206 365.114 251.604 364.903 251.895 364.573C252.01 364.449 252.279 364.149 251.177 350.464Z" fill="#2F2E41"/>
<path d="M422.205 388.498L421.662 382.36L399.516 379.933L396.712 387.786L388.762 390.817C388.474 390.926 388.199 391.069 387.944 391.243C386.356 391.39 384.848 392.013 383.61 393.035C383.791 393.188 383.972 393.334 384.153 393.48C384.191 393.518 384.234 393.55 384.272 393.581C384.777 393.982 385.296 394.376 385.82 394.751C385.958 394.852 386.095 394.954 386.239 395.049C387.391 395.879 388.583 396.649 389.811 397.356C390.985 398.036 392.191 398.663 393.427 399.237C395.699 400.293 398.053 401.154 400.465 401.81C400.803 401.906 401.14 401.995 401.477 402.077C402.064 402.223 402.657 402.363 403.251 402.477C404.45 402.732 405.663 402.931 406.892 403.075C408.697 403.297 410.513 403.408 412.331 403.405C413.574 403.405 414.805 403.356 416.022 403.259C418.162 403.084 420.286 402.755 422.38 402.274C422.455 402.255 422.53 402.242 422.605 402.217C425.811 401.469 428.928 400.365 431.898 398.925C432.354 398.703 432.809 398.474 433.259 398.239C434.365 397.661 435.439 397.038 436.481 396.371C436.856 396.136 437.225 395.894 437.593 395.64C431.929 391.764 423.704 388.987 422.205 388.498Z" fill="#470000"/>
<path d="M409.724 376.045C418.531 376.045 425.671 368.781 425.671 359.82C425.671 350.859 418.531 343.594 409.724 343.594C400.916 343.594 393.777 350.859 393.777 359.82C393.777 368.781 400.916 376.045 409.724 376.045Z" fill="#A04F4F"/>
<path d="M399.02 351.915C400.671 353.903 403.464 354.463 406.041 354.691C411.275 355.159 418.885 354.401 424 353.2C424.368 356.799 423.371 360.681 425.454 363.643C426.431 360.057 426.999 356.37 427.147 352.652C427.302 351.057 427.097 349.447 426.548 347.945C426.255 347.192 425.759 346.539 425.119 346.058C424.478 345.577 423.718 345.289 422.924 345.226C423.099 345.043 423.22 344.812 423.271 344.562C423.323 344.311 423.304 344.051 423.216 343.811C423.024 342.964 422.599 342.19 421.993 341.578C421.386 340.966 420.621 340.542 419.787 340.354L414.046 338.946C414.046 338.946 408.659 336.542 404.635 336.844C402.767 336.984 400.813 337.252 399.3 338.353C397.787 339.455 396.912 341.643 397.852 343.26C396.675 343.457 395.568 343.955 394.634 344.709C393.7 345.463 392.971 346.447 392.515 347.568C391.939 349.35 391.8 351.248 392.11 353.097C392.456 356.064 393.133 358.98 394.13 361.79L399.02 351.915Z" fill="#2F2E41"/>
<path d="M256.5 213.94C256.016 212.363 254.938 211.046 253.501 210.277C252.075 209.524 250.552 208.98 248.976 208.659C246.222 207.853 243.368 207.455 240.503 207.479C237.645 207.622 234.724 208.625 232.782 210.764C230.841 212.902 230.121 216.297 231.535 218.828L231.379 219.482C233.646 219.756 235.942 219.356 237.99 218.33C240.038 217.303 241.75 215.695 242.918 213.699C243.99 215.421 245.512 216.805 247.314 217.696C249.116 218.587 251.127 218.949 253.12 218.742C253.756 218.69 254.375 218.509 254.941 218.209C255.613 217.758 256.126 217.101 256.406 216.334C256.687 215.566 256.719 214.728 256.5 213.94Z" fill="#2F2E41"/>
<path d="M459.765 25.6761H441.322C440.96 25.6761 440.612 25.5296 440.356 25.269C440.1 25.0083 439.956 24.6548 439.956 24.2861C439.956 23.9175 440.1 23.5639 440.356 23.3032C440.612 23.0426 440.96 22.8961 441.322 22.8961H459.765C460.127 22.8961 460.475 23.0426 460.731 23.3032C460.987 23.5639 461.131 23.9175 461.131 24.2861C461.131 24.6548 460.987 25.0083 460.731 25.269C460.475 25.5296 460.127 25.6761 459.765 25.6761Z" fill="#3F3D56"/>
<path d="M459.765 30.8886H441.322C440.96 30.8886 440.612 30.7422 440.356 30.4815C440.1 30.2208 439.956 29.8673 439.956 29.4986C439.956 29.13 440.1 28.7764 440.356 28.5158C440.612 28.2551 440.96 28.1086 441.322 28.1086H459.765C460.127 28.1086 460.475 28.2551 460.731 28.5158C460.987 28.7764 461.131 29.13 461.131 29.4986C461.131 29.8673 460.987 30.2208 460.731 30.4815C460.475 30.7422 460.127 30.8886 459.765 30.8886Z" fill="#3F3D56"/>
<path d="M459.765 36.101H441.322C440.96 36.101 440.612 35.9546 440.356 35.6939C440.1 35.4332 439.956 35.0797 439.956 34.711C439.956 34.3424 440.1 33.9888 440.356 33.7282C440.612 33.4675 440.96 33.321 441.322 33.321H459.765C460.127 33.321 460.475 33.4675 460.731 33.7282C460.987 33.9888 461.131 34.3424 461.131 34.711C461.131 35.0797 460.987 35.4332 460.731 35.6939C460.475 35.9546 460.127 36.101 459.765 36.101Z" fill="#3F3D56"/>
</g>
<defs>
<clipPath id="clip0_46_12">
<rect width="472" height="397" fill="white" transform="translate(4 21)"/>
</clipPath>
</defs>
</svg>
