<svg width="650" height="474" viewBox="0 0 650 474" fill="none" xmlns="http://www.w3.org/2000/svg">
<ellipse cx="292.5" cy="238" rx="239.5" ry="236" fill="#D9D9D9"/>
<g clip-path="url(#clip0_45_11)">
<path d="M214.058 433C194.445 433 174.861 432.533 155.306 431.6C127.365 430.266 98.4726 428.888 71.6181 409.096C52.8322 395.251 36.1943 373.039 23.5037 344.859C15.0215 325.759 8.80203 305.037 5.06365 283.423C-1.90985 244.07 -1.67233 203.068 5.75626 163.863C8.35952 150.421 11.9483 137.351 16.4711 124.84C36.055 70.9486 71.7747 34.7727 114.472 25.589C114.824 25.5282 115.181 25.5181 115.535 25.5588C115.727 25.5725 115.918 25.5871 116.114 25.5763L116.365 25.4702C117.009 25.1728 117.67 24.9472 118.342 24.7957C184.192 11.7687 253.805 38.127 319.65 101.019C370.561 149.654 438.033 175.843 525.921 181.083L527.169 181.169C551.635 183.037 575.301 196.441 595.611 219.934C615.657 243.121 630.709 274.058 639.138 309.4C640.175 313.709 641.125 318.195 641.962 322.731C642.741 326.947 642.686 331.359 641.802 335.538C640.918 339.717 639.235 343.521 636.917 346.579V346.588L636.698 346.887C636.171 347.583 635.616 348.251 635.05 348.872L634.383 349.603C628.767 355.751 624.33 360.608 619.021 364.38C615.48 366.879 611.714 368.768 607.814 370.003C586.396 376.941 564.647 383.374 543.169 389.125C501.458 400.301 458.648 409.52 415.928 416.526C348.955 427.5 281.538 433.001 214.058 433ZM115.036 27.4676C114.904 27.4659 114.773 27.4777 114.644 27.5029C72.3459 36.6008 36.9643 72.4215 17.5746 125.779C13.0964 138.166 9.54317 151.107 6.96579 164.416C-0.395107 203.273 -0.629678 243.911 6.2818 282.914C9.98358 304.322 16.1428 324.845 24.5431 343.763C37.1095 371.667 53.5772 393.656 72.1661 407.354C98.7796 426.97 127.536 428.342 155.346 429.668C242.325 433.798 329.413 428.761 415.793 414.605C458.486 407.603 501.268 398.39 542.951 387.221C564.415 381.476 586.149 375.047 607.552 368.112C611.358 366.909 615.034 365.066 618.489 362.627C623.692 358.932 628.086 354.121 633.648 348.031L634.315 347.302C634.802 346.767 635.28 346.196 635.738 345.601L635.869 345.418C640.441 339.296 642.219 331.217 640.747 323.256V323.255C639.918 318.767 638.979 314.33 637.953 310.065C620.733 237.867 576.188 186.845 527.108 183.099L525.867 183.012C485.721 180.618 450.59 173.987 418.472 162.738C380.13 149.309 346.656 129.095 318.981 102.658C253.387 40.0064 184.065 13.7463 118.503 26.7115C117.891 26.8519 117.288 27.0595 116.702 27.3322L116.249 27.5006C115.992 27.5159 115.734 27.5118 115.477 27.4883C115.326 27.4779 115.179 27.4676 115.036 27.4676Z" fill="#A96363"/>
<path d="M203.033 141.077C201.218 138.762 199.36 125.852 197.042 124.542C198.775 129.631 197.517 130.978 197.508 136.563C197.53 139.735 197.251 142.897 196.678 145.976H157.41V105.251C157.41 101.592 157.952 97.9687 159.006 94.588C160.06 91.2073 161.604 88.1355 163.551 85.5481C165.498 82.9606 167.81 80.9082 170.354 79.5079C172.898 78.1076 175.625 77.387 178.378 77.3871C179.429 77.4144 180.473 77.6175 181.486 77.9917C184.861 79.2027 187.938 81.5718 190.406 84.8614C192.875 88.1511 194.65 92.2455 195.552 96.7341C198.545 111.275 203.306 135.478 203.033 141.077Z" fill="#2F2E41"/>
<path d="M159.714 191.175L159.734 159.433L145.692 161.1L150.648 181.12L148.328 231.441C147.204 231.776 146.176 232.539 145.372 233.637C144.568 234.735 144.022 236.12 143.8 237.623C143.578 239.126 143.69 240.683 144.122 242.103C144.554 243.523 145.288 244.746 146.234 245.621C147.18 246.497 148.297 246.988 149.449 247.034C150.602 247.08 151.739 246.68 152.723 245.882C153.707 245.084 154.495 243.923 154.992 242.54C155.488 241.158 155.67 239.613 155.517 238.094L159.714 191.175Z" fill="#FFB6B6"/>
<path d="M187.347 418.007L193.02 418.006L195.718 388.93H187.346L187.347 418.007Z" fill="#FFB6B6"/>
<path d="M185.426 414.288L194.393 413.577V418.682L202.919 426.507C203.34 426.893 203.657 427.448 203.824 428.091C203.991 428.734 203.999 429.431 203.846 430.08C203.694 430.729 203.39 431.297 202.977 431.7C202.565 432.103 202.067 432.32 201.555 432.32H190.879L189.039 427.27L188.32 432.32H184.295L185.426 414.288Z" fill="#2F2E41"/>
<path d="M154.546 418.007L160.22 418.006L162.918 388.93H154.546L154.546 418.007Z" fill="#FFB6B6"/>
<path d="M152.626 414.288L161.593 413.577V418.682L170.119 426.507C170.54 426.893 170.857 427.448 171.024 428.091C171.191 428.734 171.198 429.431 171.046 430.08C170.894 430.729 170.589 431.297 170.177 431.7C169.765 432.103 169.267 432.32 168.755 432.32H158.079L156.239 427.27L155.52 432.32H151.495L152.626 414.288Z" fill="#2F2E41"/>
<path d="M182.295 125.154L170.544 125.46L162.249 137.096L155.598 138.392C152.59 138.978 149.824 140.919 147.763 143.89C145.703 146.861 144.471 150.681 144.276 154.713L145.428 163.123H152.341L156.34 194.325C154.785 199.59 154.679 203.746 157.871 205.378L167.779 230.181L197.042 212.727C198.526 209.337 199.002 205.931 197.485 202.62L199.577 154.856H206.611C206.611 145.922 204.337 138.391 197.656 137.397C195.003 137.015 192.337 136.813 189.669 136.79L182.295 125.154Z" fill="#CA9292"/>
<path d="M197.042 212.727C197.042 212.727 168.47 219.464 157.871 205.378C157.871 205.378 156.795 207.806 155.173 211.832C154.707 212.99 153.806 213.774 153.262 215.177C152.768 216.451 151.497 218.018 150.958 219.464C150.525 220.627 151.22 222.147 150.769 223.403C145.341 238.533 138.999 259.875 140.359 273.967C141.235 283.055 143.046 304.202 144.954 326.915C145.103 328.689 143.896 330.969 144.045 332.757C144.187 334.444 145.685 335.639 145.826 337.33C145.92 338.452 144.874 339.597 144.967 340.719C145.07 341.949 146.312 343.154 146.414 344.38C149.027 375.741 151.419 405.02 151.419 405.02H164.783L167.305 338.149L165.244 313.773L170.083 264.475L176.765 311.323L177.625 337.69L184.687 406.245H197.042V339.88L197.964 336.432L197.042 332.01L197.964 327.246L197.042 322.057V212.727Z" fill="#2F2E41"/>
<path d="M185.902 116.098C184.082 119.312 181.492 121.605 178.56 122.602C175.628 123.598 172.527 123.238 169.77 121.58C167.012 119.922 164.761 117.065 163.389 113.481C162.016 109.896 161.603 105.797 162.217 101.859C162.832 97.9203 164.437 94.3775 166.769 91.8136C169.101 89.2496 172.021 87.8176 175.047 87.7532C178.074 87.6889 181.026 88.996 183.419 91.4595C185.811 93.9229 187.501 97.3957 188.21 101.306C188.249 101.518 188.281 101.729 188.312 101.948C188.687 104.399 188.666 106.928 188.25 109.367C187.835 111.806 187.034 114.1 185.902 116.098Z" fill="#FFB6B6"/>
<path d="M183.125 105.998C182.842 104.114 182.128 102.392 181.079 101.069C181.182 102.875 180.994 104.689 180.526 106.39C177.022 106.803 173.503 105.876 170.383 103.72C168.032 101.601 165.041 101.785 161.557 103.72C161.557 101.468 161.891 99.2385 162.539 97.158C163.188 95.0775 164.138 93.1871 165.336 91.5947C166.535 90.0024 167.957 88.7394 169.523 87.8778C171.088 87.0161 172.767 86.5728 174.461 86.5731H176.765C180.187 86.5739 183.469 88.3807 185.889 91.5963C188.309 94.8118 189.668 99.1728 189.669 103.72C187.542 104.734 185.352 105.496 183.125 105.998Z" fill="#2F2E41"/>
<path d="M82.317 324.546C102.79 324.546 119.387 302.491 119.387 275.284C119.387 248.078 102.79 226.023 82.317 226.023C61.8437 226.023 45.2468 248.078 45.2468 275.284C45.2468 302.491 61.8437 324.546 82.317 324.546Z" fill="#A96363"/>
<path d="M318.549 98.5228C339.022 98.5228 355.619 76.4677 355.619 49.2614C355.619 22.0551 339.022 0 318.549 0C298.075 0 281.479 22.0551 281.479 49.2614C281.479 76.4677 298.075 98.5228 318.549 98.5228Z" fill="#A96363"/>
<path d="M612.93 332.273C633.403 332.273 650 310.218 650 283.011C650 255.805 633.403 233.75 612.93 233.75C592.457 233.75 575.86 255.805 575.86 283.011C575.86 310.218 592.457 332.273 612.93 332.273Z" fill="#A96363"/>
<path d="M385.42 54.6336V166.337C385.421 168.657 384.732 170.884 383.504 172.533C382.276 174.183 380.608 175.121 378.862 175.146C378.837 175.149 378.813 175.15 378.789 175.15H369.005C361.177 175.15 353.67 171.017 348.135 163.662C342.6 156.306 339.49 146.33 339.49 135.927V54.6335C339.49 52.2963 340.189 50.0549 341.432 48.4023C342.676 46.7496 344.363 45.8212 346.121 45.8212H350.086C348.249 52.9405 373.175 55.9379 374.543 45.8212H378.789C380.548 45.8212 382.235 46.7496 383.478 48.4023C384.722 50.0549 385.42 52.2964 385.42 54.6336Z" fill="#470000"/>
<path d="M356.387 37.4684C356.388 37.1622 356.479 36.8686 356.642 36.6521C356.805 36.4356 357.026 36.3138 357.256 36.3135H363.166C363.396 36.3144 363.617 36.4364 363.779 36.6529C363.942 36.8694 364.033 37.1626 364.033 37.4684C364.033 37.7741 363.942 38.0673 363.779 38.2838C363.617 38.5003 363.396 38.6224 363.166 38.6233H357.256C357.026 38.6229 356.805 38.5011 356.642 38.2846C356.479 38.0681 356.388 37.7745 356.387 37.4684Z" fill="#3F3D56"/>
<path d="M380.819 189.318H343.447C340.547 189.314 337.767 187.781 335.717 185.057C333.667 182.332 332.513 178.638 332.51 174.785V96.6999C332.305 96.5041 332.138 96.246 332.022 95.9472C331.907 95.6484 331.847 95.3175 331.848 94.9817V87.1285C331.847 86.7929 331.907 86.462 332.022 86.1632C332.138 85.8645 332.305 85.6066 332.51 85.4108V83.3031C332.305 83.1074 332.138 82.8494 332.022 82.5507C331.907 82.252 331.847 81.9211 331.848 81.5854V73.7317C331.847 73.3961 331.907 73.0651 332.022 72.7664C332.138 72.4677 332.305 72.2098 332.51 72.014V68.2046C332.257 68.0238 332.045 67.7548 331.898 67.4265C331.75 67.0982 331.673 66.7229 331.674 66.3407V58.4875C331.673 58.1053 331.75 57.7299 331.898 57.4015C332.045 57.0731 332.257 56.8041 332.51 56.6231V46.1849C332.513 42.3318 333.667 38.6378 335.717 35.9133C337.767 33.1888 340.547 31.6563 343.447 31.652H380.819C383.719 31.6563 386.499 33.1889 388.549 35.9134C390.599 38.6379 391.752 42.3319 391.756 46.185V68.938C391.953 69.1018 392.115 69.3293 392.228 69.5993C392.34 69.8693 392.399 70.1729 392.399 70.4817V85.4561C392.399 85.7649 392.34 86.0686 392.228 86.3387C392.115 86.6088 391.953 86.8364 391.756 87.0002V174.785C391.752 178.638 390.599 182.332 388.549 185.057C386.499 187.781 383.719 189.314 380.819 189.318ZM343.447 33.5838C340.933 33.5875 338.522 34.9164 336.744 37.2787C334.967 39.6411 333.967 42.844 333.964 46.185V58.2664L333.265 58.3022C333.228 58.3039 333.194 58.3241 333.168 58.3586C333.143 58.3931 333.128 58.4392 333.128 58.4876V66.3407C333.128 66.389 333.143 66.435 333.168 66.4695C333.194 66.5039 333.228 66.5242 333.265 66.5261L333.964 66.5614V73.3704L333.411 73.5515C333.38 73.5613 333.353 73.5843 333.333 73.6169C333.313 73.6495 333.302 73.6899 333.301 73.7317V81.5854C333.302 81.6272 333.313 81.6676 333.333 81.7002C333.353 81.7327 333.38 81.7557 333.411 81.7655L333.964 81.9467V86.7672L333.411 86.9483C333.38 86.9581 333.353 86.9811 333.333 87.0137C333.313 87.0463 333.302 87.0867 333.301 87.1285V94.9817C333.302 95.0236 333.313 95.0641 333.333 95.0967C333.353 95.1294 333.38 95.1525 333.411 95.1623L333.964 95.3434V174.785C333.967 178.126 334.967 181.329 336.744 183.692C338.522 186.054 340.933 187.383 343.447 187.386H380.819C383.333 187.383 385.744 186.054 387.521 183.691C389.299 181.329 390.299 178.126 390.302 174.785V85.3462H390.946V70.5921H390.302V46.1849C390.299 42.844 389.299 39.6411 387.521 37.2788C385.744 34.9164 383.333 33.5876 380.819 33.5838L343.447 33.5838Z" fill="#3F3D56"/>
<path d="M366.469 38.6233C366.949 38.6233 367.338 38.1062 367.338 37.4684C367.338 36.8305 366.949 36.3135 366.469 36.3135C365.989 36.3135 365.599 36.8305 365.599 37.4684C365.599 38.1062 365.989 38.6233 366.469 38.6233Z" fill="#3F3D56"/>
<path d="M177.414 261.185H80.1684C78.7874 261.18 77.464 260.449 76.4874 259.151C75.5108 257.854 74.9605 256.095 74.9568 254.26V191.293C74.9603 189.458 75.5105 187.7 76.4869 186.402C77.4633 185.104 78.7867 184.373 80.1677 184.368H177.413C178.794 184.373 180.117 185.104 181.094 186.401C182.071 187.699 182.621 189.457 182.625 191.293V254.259C182.621 256.094 182.071 257.853 181.095 259.151C180.118 260.448 178.795 261.18 177.414 261.185Z" fill="#E3B8B8"/>
<path d="M177.414 261.185H80.1684C78.7874 261.18 77.464 260.449 76.4874 259.151C75.5108 257.854 74.9605 256.095 74.9568 254.26V191.293C74.9603 189.458 75.5105 187.7 76.4869 186.402C77.4633 185.104 78.7867 184.373 80.1677 184.368H177.413C178.794 184.373 180.117 185.104 181.094 186.401C182.071 187.699 182.621 189.457 182.625 191.293V254.259C182.621 256.094 182.071 257.853 181.095 259.151C180.118 260.448 178.795 261.18 177.414 261.185ZM80.1684 186.3C79.1725 186.304 78.2183 186.831 77.5142 187.767C76.81 188.703 76.4133 189.971 76.4105 191.294V254.259C76.4134 255.583 76.8103 256.851 77.5146 257.786C78.2189 258.722 79.1732 259.249 80.1691 259.253H177.412C178.408 259.249 179.363 258.722 180.067 257.786C180.771 256.85 181.168 255.582 181.171 254.258V191.293C181.168 189.97 180.771 188.702 180.067 187.766C179.363 186.831 178.408 186.303 177.412 186.3L80.1684 186.3Z" fill="#3F3D56"/>
<path d="M134.003 251.879C114.824 251.879 94.8257 251.636 87.3641 251.478C86.3824 251.451 85.4475 250.915 84.759 249.985C84.0705 249.054 83.683 247.803 83.6792 246.498V194.376C83.6796 193.909 83.8192 193.461 84.0675 193.13C84.3158 192.799 84.6527 192.613 85.0043 192.611H172.574C172.926 192.612 173.263 192.797 173.512 193.127C173.761 193.457 173.901 193.904 173.902 194.372V229.735C173.886 235.508 172.168 241.042 169.116 245.151C166.064 249.259 161.923 251.615 157.579 251.712C150.625 251.832 142.39 251.879 134.003 251.879Z" fill="#470000"/>
<path d="M167.376 226.486H88.2498C87.5873 226.484 86.9413 226.211 86.3998 225.703C85.8583 225.196 85.4475 224.479 85.2231 223.651L76.2672 190.263C76.0946 189.619 76.0408 188.929 76.1103 188.252C76.1798 187.575 76.3707 186.93 76.6668 186.371C76.9628 185.812 77.3556 185.355 77.8119 185.04C78.2682 184.724 78.7749 184.559 79.2893 184.558L178.196 184.375C178.666 184.374 179.13 184.51 179.557 184.774C179.983 185.038 180.36 185.423 180.662 185.901C180.964 186.38 181.184 186.941 181.305 187.545C181.427 188.148 181.447 188.78 181.364 189.395L181.441 189.438L181.157 190.319L181.154 190.328L170.327 223.898C170.081 224.667 169.669 225.322 169.145 225.782C168.62 226.242 168.005 226.487 167.376 226.486ZM178.2 186.306L79.2921 186.489C79.0103 186.49 78.7327 186.581 78.4827 186.753C78.2327 186.926 78.0176 187.176 77.8554 187.482C77.6932 187.788 77.5886 188.142 77.5505 188.513C77.5124 188.884 77.5419 189.262 77.6364 189.614L86.592 223.001C86.7151 223.455 86.9403 223.847 87.2371 224.125C87.5339 224.403 87.8878 224.553 88.2509 224.555H167.376C167.72 224.555 168.057 224.421 168.344 224.169C168.631 223.917 168.856 223.558 168.991 223.138L179.818 189.566C179.933 189.211 179.979 188.823 179.953 188.437C179.927 188.052 179.83 187.681 179.67 187.358C179.509 187.034 179.291 186.769 179.035 186.586C178.778 186.402 178.492 186.306 178.2 186.306Z" fill="#3F3D56"/>
<path d="M128.643 233.754C132.065 233.754 134.839 230.068 134.839 225.521C134.839 220.974 132.065 217.287 128.643 217.287C125.221 217.287 122.447 220.974 122.447 225.521C122.447 230.068 125.221 233.754 128.643 233.754Z" fill="#E3B8B8"/>
<path d="M362.694 162.277C366.116 162.277 368.89 158.591 368.89 154.043C368.89 149.496 366.116 145.81 362.694 145.81C359.272 145.81 356.498 149.496 356.498 154.043C356.498 158.591 359.272 162.277 362.694 162.277Z" fill="#E3B8B8"/>
<path d="M597.033 273.468L580.482 251.755C579.677 250.689 578.721 249.846 577.669 249.272C576.618 248.699 575.492 248.407 574.355 248.413H574.297C573.152 248.417 572.018 248.723 570.963 249.313C569.907 249.904 568.95 250.766 568.147 251.851C564.447 256.828 562.342 263.518 562.276 270.514C562.209 277.51 564.186 284.268 567.791 289.367C567.966 289.618 568.147 289.86 568.329 290.101C569.336 291.431 570.447 292.613 571.644 293.627C574.916 296.436 578.731 297.923 582.627 297.906H582.75C585.424 297.894 588.069 297.177 590.534 295.798C592.998 294.418 595.231 292.403 597.106 289.869C598.73 287.68 599.634 284.723 599.621 281.649C599.607 278.574 598.677 275.632 597.033 273.468ZM596.074 288.507C593.001 292.621 588.955 295.202 584.617 295.814C580.28 296.426 575.916 295.033 572.262 291.869C571.216 290.95 570.24 289.898 569.347 288.73C565.781 284.049 563.759 277.678 563.728 271.017C563.697 264.357 565.658 257.953 569.18 253.213C569.849 252.307 570.648 251.586 571.529 251.094C572.41 250.601 573.356 250.346 574.311 250.344H574.355C575.301 250.34 576.239 250.583 577.114 251.061C577.99 251.538 578.786 252.24 579.457 253.126L596.008 274.85C597.378 276.65 598.155 279.1 598.167 281.661C598.179 284.221 597.426 286.684 596.074 288.507Z" fill="#3F3D56"/>
<path d="M542.729 202.203L526.178 180.48C524.549 178.332 522.346 177.13 520.051 177.138H520C518.853 177.144 517.719 177.452 516.662 178.044C515.605 178.636 514.647 179.5 513.843 180.586C510.784 184.715 508.8 190.038 508.183 195.774C507.565 201.51 508.347 207.358 510.412 212.461L510.42 212.471C511.272 214.558 512.33 216.485 513.567 218.199C513.705 218.411 513.865 218.624 514.025 218.836C517.826 223.85 522.967 226.656 528.322 226.641H528.453C531.127 226.626 533.773 225.907 536.237 224.526C538.701 223.145 540.934 221.129 542.809 218.595C543.614 217.512 544.25 216.228 544.681 214.818C545.113 213.408 545.331 211.899 545.324 210.377C545.316 208.855 545.083 207.35 544.638 205.947C544.193 204.545 543.544 203.273 542.729 202.203ZM541.769 217.243C540.03 219.595 537.956 221.465 535.67 222.747C533.383 224.028 530.928 224.695 528.446 224.709H528.322C524.595 224.707 520.952 223.241 517.85 220.494C514.748 217.748 512.327 213.844 510.891 209.274C509.454 204.704 509.067 199.671 509.777 194.809C510.487 189.947 512.264 185.472 514.883 181.948C516.238 180.128 518.081 179.096 520.008 179.08C521.935 179.063 523.788 180.064 525.161 181.861L541.711 203.575C543.081 205.379 543.856 207.831 543.866 210.393C543.877 212.955 543.123 215.418 541.769 217.243Z" fill="#3F3D56"/>
<path d="M598.091 280.295L579.844 256.347C578.648 254.78 577.033 253.908 575.353 253.921C573.673 253.935 572.066 254.834 570.884 256.42C569.406 258.405 568.236 260.758 567.442 263.343C566.649 265.929 566.246 268.697 566.258 271.49C566.27 274.282 566.696 277.044 567.512 279.618C568.327 282.192 569.517 284.526 571.012 286.489C572.507 288.451 574.279 290.003 576.225 291.055C578.172 292.106 580.256 292.638 582.357 292.619C584.458 292.6 586.536 292.031 588.472 290.944C590.408 289.858 592.164 288.274 593.639 286.285L598.091 280.295Z" fill="#470000"/>
<path d="M543.79 209.026L525.543 185.078C524.347 183.511 522.732 182.639 521.052 182.653C519.372 182.667 517.765 183.565 516.583 185.152C515.105 187.136 513.935 189.489 513.141 192.075C512.348 194.66 511.945 197.429 511.957 200.221C511.969 203.014 512.395 205.776 513.211 208.349C514.026 210.923 515.216 213.258 516.711 215.22C518.206 217.182 519.978 218.734 521.924 219.786C523.871 220.838 525.955 221.369 528.056 221.351C530.157 221.332 532.235 220.763 534.171 219.676C536.107 218.589 537.863 217.006 539.338 215.017L543.79 209.026Z" fill="#470000"/>
<path d="M578.04 295.211L577.604 296.737C575.554 295.704 573.567 294.667 571.644 293.627C537.568 275.149 521.301 253.522 510.42 212.471L510.412 212.461C509.896 210.53 509.395 208.553 508.908 206.531L510.056 206.038C510.44 207.983 511.002 209.858 511.728 211.621C512.324 213.872 512.937 216.064 513.567 218.199C523.794 252.846 538.877 272.647 567.791 289.367C569.245 290.208 570.735 291.041 572.262 291.869C574.034 293.403 575.987 294.533 578.04 295.211Z" fill="#3F3D56"/>
<path d="M525.875 224.883L524.853 226.257L562.605 275.807L563.627 274.432L525.875 224.883Z" fill="#3F3D56"/>
<path d="M206.259 183.827L206.279 152.084L192.237 153.752L197.193 173.772L179.205 210.007C178.08 210.342 177.053 211.105 176.249 212.203C175.445 213.301 174.898 214.686 174.676 216.189C174.454 217.692 174.566 219.249 174.998 220.669C175.431 222.089 176.164 223.311 177.11 224.187C178.056 225.063 179.173 225.554 180.326 225.6C181.478 225.646 182.616 225.246 183.6 224.448C184.584 223.65 185.372 222.489 185.868 221.106C186.364 219.724 186.547 218.179 186.393 216.661L206.259 183.827Z" fill="#FFB6B6"/>
</g>
<defs>
<clipPath id="clip0_45_11">
<rect width="650" height="433" fill="white"/>
</clipPath>
</defs>
</svg>
