<svg width="479" height="472" viewBox="0 0 479 472" fill="none" xmlns="http://www.w3.org/2000/svg">
<ellipse cx="239.5" cy="236" rx="239.5" ry="236" fill="#D9D9D9"/>
<g clip-path="url(#clip0_39_10)">
<path d="M94.7389 372.914C98.1781 389.921 109.958 400.453 109.958 400.453C109.958 400.453 116.162 383.413 112.723 366.407C109.284 349.4 97.5037 338.868 97.5037 338.868C97.5037 338.868 91.2998 355.908 94.7389 372.914Z" fill="#C99797"/>
<path d="M99.7925 369.26C109.23 381.549 110.382 400.44 110.382 400.44C110.382 400.44 96.2344 399.406 86.7973 387.117C77.3603 374.828 76.2076 355.937 76.2076 355.937C76.2076 355.937 90.3554 356.971 99.7925 369.26Z" fill="#5A0101"/>
<path d="M407.871 416.628H75.563V418H407.871V416.628Z" fill="#5A0101"/>
<path d="M114.615 417.314H101.282V399.478H114.615V417.314ZM102.308 415.942H113.59V400.85H102.308V415.942Z" fill="#C99797"/>
<path d="M142.998 88.601H30V239.759H142.998V88.601Z" fill="#C99797"/>
<path d="M142.998 126.208V129.678C141.276 128.151 139.886 126.044 138.969 123.568C137.464 119.452 137.512 114.708 137.559 110.118C137.614 104.664 137.668 99.519 135.082 96.168C132.236 92.4892 127.682 93.0083 123.278 93.5091C122.761 93.5638 122.243 93.6275 121.733 93.6821C117.315 94.1283 112.394 92.6349 110.004 88.601H112.986C115.171 90.5679 118.513 91.2599 121.583 90.9503C122.08 90.9048 122.591 90.841 123.101 90.7864C127.737 90.2583 132.992 89.6573 136.498 94.2011C139.724 98.3716 139.663 104.363 139.602 110.155C139.554 114.425 139.513 118.833 140.807 122.366C141.343 123.825 142.088 125.131 142.998 126.208Z" fill="#5A0101"/>
<path d="M142.998 150.202V154.264C142.503 153.397 141.946 152.595 141.337 151.869C137.825 147.726 132.781 146.815 127.907 145.923C127.274 145.813 126.654 145.695 126.035 145.577C118.132 144.056 113.231 140.423 111.059 134.495C109.555 130.379 109.603 125.635 109.65 121.045C109.705 115.591 109.759 110.446 107.172 107.095C104.327 103.416 99.7731 103.935 95.3689 104.436C94.8515 104.491 94.3342 104.555 93.8237 104.609C88.1465 105.183 81.6321 102.551 80.7403 95.4396C80.4341 92.9991 80.8901 90.7591 81.564 88.601H83.7968C83.048 90.7682 82.4898 92.8626 82.7553 94.9843C83.4292 100.411 88.8885 102.36 93.6739 101.877C94.1708 101.832 94.6814 101.768 95.1919 101.713C99.8276 101.185 105.083 100.584 108.588 105.128C111.815 109.299 111.754 115.29 111.692 121.082C111.645 125.352 111.604 129.76 112.897 133.293C114.749 138.356 119.139 141.488 126.328 142.872C126.94 142.991 127.56 143.109 128.179 143.218C133.353 144.156 138.71 145.13 142.692 149.82C142.794 149.938 142.896 150.066 142.998 150.202Z" fill="#5A0101"/>
<path d="M142.998 218.661V224.27C140.541 220.773 138.485 215.974 136.913 209.974C136.579 208.699 136.259 207.397 135.939 206.094C134.176 198.965 132.352 191.598 128.009 186.89C123.367 181.864 116.716 180.753 110.283 179.678C109.46 179.542 108.636 179.405 107.819 179.259C97.3906 177.411 90.9306 173.013 88.0648 165.819C86.0771 160.82 86.1384 155.065 86.1997 149.501C86.2745 142.89 86.3494 136.644 82.9322 132.583C79.1815 128.121 73.1708 128.749 67.3643 129.359C66.6768 129.432 65.9961 129.505 65.329 129.568C57.8344 130.261 49.2369 127.073 48.0661 118.45C47.4875 114.225 48.9646 110.482 50.3873 106.858C51.2042 104.782 51.9802 102.806 52.375 100.776C53.2055 96.596 52.1776 91.8883 49.8972 88.601H53.2327C54.1953 90.471 54.8501 92.593 55.154 94.8267C55.458 97.0604 55.404 99.355 54.9957 101.559C54.5261 103.935 53.6548 106.157 52.8107 108.306C51.5105 111.603 50.292 114.717 50.7209 117.904C51.6194 124.478 58.8146 126.846 65.1248 126.263C65.7851 126.199 66.459 126.126 67.1329 126.063C73.2457 125.416 80.1754 124.697 84.8042 130.206C89.0586 135.26 88.977 142.526 88.8953 149.547C88.8408 154.728 88.7795 160.073 90.4813 164.362C92.9251 170.49 98.7248 174.297 108.207 175.981C109.01 176.127 109.827 176.263 110.644 176.4C117.478 177.538 124.537 178.713 129.786 184.404C134.707 189.74 136.647 197.562 138.512 205.129C138.832 206.422 139.152 207.697 139.479 208.963C140.345 212.379 141.527 215.637 142.998 218.661Z" fill="#5A0101"/>
<path d="M30 149.638C33.1041 154.664 39.6866 156.522 45.5883 155.976C46.2554 155.912 46.9361 155.839 47.6237 155.766C53.4301 155.156 59.4408 154.528 63.1916 158.99C66.6088 163.051 66.5339 169.298 66.459 175.908C66.3977 181.472 66.3365 187.227 68.3242 192.226C71.1899 199.42 77.6499 203.818 88.0784 205.666C88.8953 205.812 89.719 205.949 90.5426 206.085C96.9754 207.16 103.626 208.271 108.268 213.297C112.611 218.005 114.436 225.372 116.199 232.502C116.519 233.804 116.839 235.106 117.172 236.381C117.478 237.555 117.805 238.675 118.146 239.759H121.059C120.548 238.275 120.113 236.79 119.738 235.37C119.412 234.104 119.092 232.829 118.772 231.536C116.907 223.969 114.967 216.147 110.045 210.811C104.797 205.12 97.7378 203.945 90.9034 202.807C90.0866 202.671 89.2697 202.534 88.4665 202.388C78.9841 200.704 73.1844 196.898 70.7407 190.769C69.0389 186.48 69.1002 181.135 69.1546 175.954C69.2363 168.933 69.318 161.667 65.0636 156.613C60.4347 151.104 53.505 151.823 47.3922 152.47C46.7183 152.534 46.0444 152.606 45.3841 152.67C39.0739 153.253 31.8788 150.885 30.9802 144.311C30.5514 141.124 31.7699 138.01 33.07 134.713C33.9141 132.564 34.7854 130.343 35.2551 127.966C36.5349 121.464 34.377 114.262 30 110.328V114.79C32.3893 118.086 33.4785 122.903 32.6344 127.183C32.2396 129.213 31.4635 131.189 30.6467 133.266C30.4289 133.821 30.211 134.367 30 134.932L30 149.638Z" fill="#5A0101"/>
<path d="M79.9848 239.759H77.1598C77.0101 239.167 76.8671 238.566 76.7173 237.965C74.9543 230.835 73.13 223.468 68.787 218.761C64.1445 213.734 57.494 212.623 51.0613 211.549C50.2376 211.412 49.4139 211.276 48.5971 211.13C39.3938 209.5 33.2742 205.876 30 200.103V191.042C30.2104 192.851 30.6356 194.603 31.2593 196.233C33.7031 202.361 39.5028 206.167 48.9851 207.852C49.7883 207.998 50.6052 208.134 51.422 208.271C58.2564 209.409 65.3154 210.584 70.5637 216.275C75.4853 221.611 77.4253 229.433 79.2904 237C79.5219 237.929 79.7465 238.848 79.9848 239.759Z" fill="#5A0101"/>
<path d="M296.159 88.601H183.16V239.759H296.159V88.601Z" fill="#C99797"/>
<path d="M237.618 99.5281C237.617 108.044 235.932 116.409 232.734 123.772C229.536 131.135 224.938 137.236 219.407 141.454C213.877 145.672 207.61 147.857 201.244 147.788C194.878 147.719 188.639 145.398 183.16 141.06V88.601H236.685C237.308 92.1835 237.621 95.85 237.618 99.5281Z" fill="#5A0101"/>
<path d="M266.888 158.716C278.918 158.716 288.671 145.671 288.671 129.578C288.671 113.485 278.918 100.439 266.888 100.439C254.858 100.439 245.105 113.485 245.105 129.578C245.105 145.671 254.858 158.716 266.888 158.716Z" fill="#5A0101"/>
<path d="M217.877 212.441C226.524 212.441 233.533 203.065 233.533 191.498C233.533 179.931 226.524 170.554 217.877 170.554C209.23 170.554 202.22 179.931 202.22 191.498C202.22 203.065 209.23 212.441 217.877 212.441Z" fill="#5A0101"/>
<path d="M296.159 214.991V239.759H273.757C272.805 235.775 272.768 231.501 273.648 227.488C274.529 223.475 276.287 219.906 278.697 217.242C281.107 214.577 284.058 212.939 287.17 212.538C290.282 212.137 293.413 212.991 296.159 214.991Z" fill="#5A0101"/>
<path d="M257.358 196.051C259.614 196.051 261.442 193.605 261.442 190.587C261.442 187.57 259.614 185.124 257.358 185.124C255.103 185.124 253.274 187.57 253.274 190.587C253.274 193.605 255.103 196.051 257.358 196.051Z" fill="#5A0101"/>
<path d="M450 88.601H337.002V239.759H450V88.601Z" fill="#C99797"/>
<path d="M392.139 88.601V150.521H337.002V154.164H394.862V88.601H392.139Z" fill="#5A0101"/>
<path d="M445.324 239.759L450 230.862V224.534L441.995 239.759H445.324ZM426.332 174.579L401.275 222.248L419.892 239.759H424.623L405.066 221.365L426.992 179.651L450 201.296V196.843L426.332 174.579Z" fill="#5A0101"/>
<path d="M384.652 168.542L370.214 187.855L384.652 207.169L399.089 187.855L384.652 168.542ZM374.06 187.855L384.652 173.687L395.243 187.855L384.652 202.024L374.06 187.855Z" fill="#5A0101"/>
<path d="M85.3846 102.44C91.0491 102.44 95.641 96.2974 95.641 88.72C95.641 81.1427 91.0491 75 85.3846 75C79.7202 75 75.1282 81.1427 75.1282 88.72C75.1282 96.2974 79.7202 102.44 85.3846 102.44Z" fill="#E8C6C6"/>
<path d="M243.846 102.44C249.511 102.44 254.103 96.2974 254.103 88.72C254.103 81.1427 249.511 75 243.846 75C238.182 75 233.59 81.1427 233.59 88.72C233.59 96.2974 238.182 102.44 243.846 102.44Z" fill="#E8C6C6"/>
<path d="M395.128 102.44C400.793 102.44 405.385 96.2974 405.385 88.72C405.385 81.1427 400.793 75 395.128 75C389.464 75 384.872 81.1427 384.872 88.72C384.872 96.2974 389.464 102.44 395.128 102.44Z" fill="#E8C6C6"/>
<path d="M233.333 168.639C238.715 168.639 243.077 162.803 243.077 155.605C243.077 148.407 238.715 142.571 233.333 142.571C227.952 142.571 223.59 148.407 223.59 155.605C223.59 162.803 227.952 168.639 233.333 168.639Z" fill="#FFB8B8"/>
<path d="M228.205 161.779C228.205 161.779 230.769 179.615 229.744 183.045C228.718 186.475 244.103 181.673 244.103 181.673C244.103 181.673 241.026 163.837 241.538 159.721C242.051 155.605 228.205 161.779 228.205 161.779Z" fill="#FFB8B8"/>
<path d="M211.282 223.519L212.308 242.041L217.398 271.129L218.974 279.085L221.538 266.737L218.974 238.611L218.103 225.948L211.282 223.519Z" fill="#FFB8B8"/>
<path d="M265.128 220.775V239.983C265.128 239.983 263.59 264.679 260.513 270.853C257.436 277.027 256.41 246.157 256.41 246.157L258.821 223.519L265.128 220.775Z" fill="#FFB8B8"/>
<path d="M219.487 280.457C219.487 280.457 216.923 284.573 218.974 326.419C221.026 368.265 217.949 398.449 224.615 398.449C224.615 398.449 222.564 407.367 228.205 408.053C233.846 408.739 236.41 409.425 236.923 407.367C237.436 405.309 238.462 395.705 236.923 395.705C236.923 395.705 236.923 398.449 237.949 387.473C238.974 376.497 238.974 324.361 241.538 317.501L249.744 342.883C249.744 342.883 249.744 354.545 251.282 360.033C252.821 365.521 255.385 397.077 255.385 397.077L254.872 401.879C254.872 401.879 267.179 404.623 267.692 401.879C268.205 399.135 268.205 395.019 267.692 393.647C267.18 392.275 267.18 392.275 268.205 389.531C269.231 386.787 269.231 384.729 268.718 382.671C268.205 380.613 268.205 336.023 268.205 336.023C268.205 336.023 267.179 281.829 261.026 279.085C254.872 276.341 219.487 280.457 219.487 280.457Z" fill="#5A0101"/>
<path d="M226.154 402.565L222.051 412.169C222.051 412.169 215.641 409.082 216.923 416.971C227.949 418 235.641 416.628 235.641 416.628C235.641 416.628 238.205 418 238.718 415.942C239.231 413.884 237.436 406.681 235.897 406.681C234.359 406.681 226.154 402.565 226.154 402.565Z" fill="#5A0101"/>
<path d="M255.897 399.821C255.897 399.821 251.795 412.169 253.333 412.855C254.872 413.541 268.718 416.285 269.744 416.971C270.769 417.657 275.897 418.343 276.41 414.227C276.923 410.111 273.846 408.739 273.846 408.739C273.846 408.739 268.205 407.367 266.667 400.507C265.128 393.647 255.897 399.821 255.897 399.821Z" fill="#5A0101"/>
<path d="M245.128 179.615C245.128 179.615 231.282 176.185 228.205 179.615C225.128 183.045 212.308 189.905 212.308 193.335C212.308 196.765 218.974 230.379 218.974 230.379C218.974 230.379 215.385 281.143 218.974 282.515C222.564 283.887 228.718 279.771 235.897 284.573C243.077 289.375 263.59 280.457 263.59 280.457C263.59 280.457 255.897 236.553 257.949 228.321C260 220.089 261.538 191.963 261.538 191.963C261.538 191.963 252.821 179.615 245.128 179.615Z" fill="#664747"/>
<path d="M215.897 191.277L212.308 192.649C212.308 192.649 204.615 224.891 207.692 226.263C210.769 227.635 219.487 230.379 220.513 230.379C221.538 230.379 215.897 191.277 215.897 191.277Z" fill="#664747"/>
<path d="M253.333 187.847L261.538 191.963C261.538 191.963 272.308 218.717 269.744 222.147C267.179 225.577 255.897 229.007 255.897 229.007L253.333 187.847Z" fill="#664747"/>
<path d="M233.037 139.506C232.227 139.31 231.394 139.359 230.6 139.65C229.964 140.027 229.379 140.54 228.868 141.17C227.94 142.159 226.949 143.038 225.906 143.795C225.075 144.398 224.182 144.957 223.602 145.956C223.328 146.46 223.109 147.015 222.951 147.603C221.952 151.017 221.683 154.736 222.176 158.343C222.231 158.855 222.346 159.353 222.517 159.818C223.05 161.131 224.228 161.649 225.219 162.338C227.102 163.645 228.529 165.846 230.073 167.792C230.647 168.558 231.292 169.222 231.991 169.769C234.194 171.376 236.887 170.852 239.36 170.284C239.536 170.283 239.709 170.236 239.871 170.146C240.032 170.055 240.179 169.923 240.302 169.756C240.425 169.589 240.523 169.392 240.589 169.175C240.654 168.957 240.687 168.725 240.686 168.49L242.638 156.746C242.992 155.006 243.16 153.207 243.138 151.404C243.002 148.553 241.848 144.604 240.284 142.579C238.461 140.219 235.42 139.844 233.037 139.506Z" fill="#5A0101"/>
<path d="M167.046 406.97C169.281 406.97 171.093 404.546 171.093 401.556C171.093 398.566 169.281 396.143 167.046 396.143C164.811 396.143 162.999 398.566 162.999 401.556C162.999 404.546 164.811 406.97 167.046 406.97Z" fill="#5A0101"/>
<path d="M167.046 417.195C164.734 417.195 162.474 416.278 160.551 414.559C158.628 412.841 157.13 410.398 156.245 407.541C155.36 404.683 155.129 401.539 155.58 398.505C156.031 395.471 157.144 392.685 158.779 390.498C160.414 388.311 162.498 386.821 164.765 386.218C167.033 385.614 169.384 385.924 171.52 387.108C173.656 388.291 175.482 390.296 176.767 392.868C178.051 395.439 178.737 398.463 178.737 401.556C178.734 405.702 177.501 409.677 175.309 412.609C173.117 415.541 170.146 417.19 167.046 417.195ZM167.046 387.12C164.912 387.12 162.825 387.967 161.051 389.553C159.276 391.139 157.893 393.394 157.076 396.032C156.259 398.669 156.045 401.572 156.462 404.372C156.878 407.173 157.906 409.745 159.415 411.764C160.925 413.783 162.847 415.158 164.941 415.715C167.034 416.272 169.204 415.986 171.176 414.893C173.148 413.801 174.833 411.95 176.019 409.576C177.205 407.202 177.838 404.411 177.838 401.556C177.834 397.729 176.696 394.059 174.673 391.353C172.65 388.647 169.907 387.124 167.046 387.12Z" fill="#5A0101"/>
<path d="M363.969 407.656C366.204 407.656 368.016 405.232 368.016 402.242C368.016 399.252 366.204 396.829 363.969 396.829C361.734 396.829 359.922 399.252 359.922 402.242C359.922 405.232 361.734 407.656 363.969 407.656Z" fill="#5A0101"/>
<path d="M363.969 417.881C361.657 417.881 359.397 416.964 357.474 415.245C355.551 413.527 354.053 411.084 353.168 408.227C352.283 405.369 352.052 402.225 352.503 399.191C352.954 396.157 354.067 393.371 355.702 391.184C357.337 388.996 359.421 387.507 361.688 386.904C363.956 386.3 366.307 386.61 368.443 387.794C370.579 388.977 372.405 390.982 373.69 393.554C374.974 396.125 375.66 399.149 375.66 402.242C375.657 406.388 374.424 410.363 372.232 413.295C370.04 416.227 367.069 417.876 363.969 417.881ZM363.969 387.806C361.835 387.806 359.748 388.653 357.974 390.239C356.199 391.825 354.816 394.08 353.999 396.718C353.182 399.355 352.968 402.258 353.385 405.058C353.801 407.859 354.829 410.431 356.338 412.45C357.848 414.469 359.77 415.844 361.864 416.401C363.957 416.958 366.127 416.672 368.099 415.579C370.071 414.487 371.756 412.636 372.942 410.262C374.128 407.888 374.761 405.097 374.761 402.242C374.758 398.415 373.619 394.745 371.596 392.039C369.573 389.333 366.83 387.81 363.969 387.806Z" fill="#5A0101"/>
<path d="M363.969 377.472C366.204 377.472 368.016 375.048 368.016 372.058C368.016 369.068 366.204 366.645 363.969 366.645C361.734 366.645 359.922 369.068 359.922 372.058C359.922 375.048 361.734 377.472 363.969 377.472Z" fill="#5A0101"/>
<path d="M363.969 387.697C361.657 387.697 359.397 386.78 357.474 385.061C355.551 383.343 354.053 380.9 353.168 378.043C352.283 375.185 352.052 372.041 352.503 369.007C352.954 365.973 354.067 363.187 355.702 361C357.337 358.812 359.421 357.323 361.688 356.72C363.956 356.116 366.307 356.426 368.443 357.61C370.579 358.793 372.405 360.798 373.69 363.369C374.974 365.941 375.66 368.965 375.66 372.058C375.657 376.204 374.424 380.179 372.232 383.111C370.04 386.043 367.069 387.692 363.969 387.697ZM363.969 357.622C361.835 357.622 359.748 358.469 357.974 360.055C356.199 361.641 354.816 363.896 353.999 366.534C353.182 369.171 352.968 372.074 353.385 374.874C353.801 377.675 354.829 380.247 356.338 382.266C357.848 384.285 359.77 385.66 361.864 386.217C363.957 386.774 366.127 386.488 368.099 385.395C370.071 384.303 371.756 382.452 372.942 380.078C374.128 377.704 374.761 374.913 374.761 372.058C374.758 368.231 373.619 364.561 371.596 361.855C369.573 359.149 366.83 357.626 363.969 357.622Z" fill="#5A0101"/>
</g>
<defs>
<clipPath id="clip0_39_10">
<rect width="420" height="343" fill="white" transform="translate(30 75)"/>
</clipPath>
</defs>
</svg>
