<svg width="289" height="166" viewBox="0 0 289 166" fill="none" xmlns="http://www.w3.org/2000/svg">
<path d="M282.218 78.4867C284.623 120.705 253.008 156.774 211.69 159.128C170.372 161.481 134.865 129.235 132.461 87.0167C130.056 44.7988 161.671 8.72892 202.989 6.37549C244.307 4.02206 279.813 36.2688 282.218 78.4867Z" fill="white" stroke="black" stroke-width="4"/>
<rect width="228" height="63" transform="translate(0 49)" fill="white"/>
<path d="M26.272 93L11.26 67.08H14.68L27.964 90.156L41.212 67.08H44.632L29.656 93H26.272ZM47.9775 93V72.12H50.9295V93H47.9775ZM47.9775 68.232V65.28H50.9295V68.232H47.9775ZM59.6778 93C58.8858 93 58.1538 92.808 57.4818 92.424C56.8338 92.016 56.3058 91.488 55.8978 90.84C55.5138 90.168 55.3218 89.436 55.3218 88.644V88.356H58.2738V88.644C58.2738 89.028 58.4058 89.364 58.6698 89.652C58.9578 89.916 59.2938 90.048 59.6778 90.048H72.2058C72.5898 90.048 72.9138 89.916 73.1778 89.652C73.4658 89.364 73.6098 89.028 73.6098 88.644V85.44C73.6098 85.056 73.4658 84.732 73.1778 84.468C72.9138 84.18 72.5898 84.036 72.2058 84.036H59.6778C58.8858 84.036 58.1538 83.844 57.4818 83.46C56.8338 83.052 56.3058 82.524 55.8978 81.876C55.5138 81.204 55.3218 80.472 55.3218 79.68V76.476C55.3218 75.684 55.5138 74.964 55.8978 74.316C56.3058 73.644 56.8338 73.116 57.4818 72.732C58.1538 72.324 58.8858 72.12 59.6778 72.12H72.2058C73.0218 72.12 73.7538 72.324 74.4018 72.732C75.0738 73.116 75.6018 73.644 75.9858 74.316C76.3938 74.964 76.5978 75.684 76.5978 76.476V76.764H73.6098V76.476C73.6098 76.092 73.4658 75.768 73.1778 75.504C72.9138 75.216 72.5898 75.072 72.2058 75.072H59.6778C59.2938 75.072 58.9578 75.216 58.6698 75.504C58.4058 75.768 58.2738 76.092 58.2738 76.476V79.68C58.2738 80.064 58.4058 80.4 58.6698 80.688C58.9578 80.952 59.2938 81.084 59.6778 81.084H72.2058C73.0218 81.084 73.7538 81.288 74.4018 81.696C75.0738 82.08 75.6018 82.608 75.9858 83.28C76.3938 83.928 76.5978 84.648 76.5978 85.44V88.644C76.5978 89.436 76.3938 90.168 75.9858 90.84C75.6018 91.488 75.0738 92.016 74.4018 92.424C73.7538 92.808 73.0218 93 72.2058 93H59.6778ZM83.8343 93C83.0423 93 82.3103 92.808 81.6383 92.424C80.9903 92.016 80.4623 91.488 80.0543 90.84C79.6703 90.168 79.4783 89.436 79.4783 88.644V72.12H82.4303V88.644C82.4303 89.028 82.5623 89.364 82.8263 89.652C83.1143 89.916 83.4503 90.048 83.8343 90.048H96.3623C96.7463 90.048 97.0823 89.916 97.3703 89.652C97.6583 89.364 97.8023 89.028 97.8023 88.644V72.12H100.754V88.644C100.754 89.436 100.55 90.168 100.142 90.84C99.7583 91.488 99.2303 92.016 98.5583 92.424C97.9103 92.808 97.1783 93 96.3623 93H83.8343ZM108.83 93C108.038 93 107.306 92.808 106.634 92.424C105.986 92.016 105.458 91.488 105.05 90.84C104.666 90.168 104.474 89.436 104.474 88.644V81.084H122.762V76.476C122.762 76.092 122.618 75.768 122.33 75.504C122.066 75.216 121.742 75.072 121.358 75.072H104.474V72.12H121.358C122.174 72.12 122.906 72.324 123.554 72.732C124.226 73.116 124.754 73.644 125.138 74.316C125.546 74.964 125.75 75.684 125.75 76.476V93H108.83ZM108.83 90.048H122.762V84.036H107.426V88.644C107.426 89.028 107.558 89.364 107.822 89.652C108.11 89.916 108.446 90.048 108.83 90.048ZM133.474 93C132.682 93 131.95 92.808 131.278 92.424C130.63 92.016 130.102 91.488 129.694 90.84C129.31 90.168 129.118 89.436 129.118 88.644V65.28H132.07V88.644C132.07 89.028 132.202 89.364 132.466 89.652C132.754 89.916 133.09 90.048 133.474 90.048H137.002V93H133.474ZM150.006 93V71.4C150.006 70.608 150.198 69.888 150.582 69.24C150.966 68.568 151.482 68.04 152.13 67.656C152.802 67.272 153.534 67.08 154.326 67.08H171.606C172.398 67.08 173.118 67.272 173.766 67.656C174.438 68.04 174.966 68.568 175.35 69.24C175.734 69.888 175.926 70.608 175.926 71.4V93H173.01V83.532H152.922V93H150.006ZM152.922 80.616H173.01V71.4C173.01 71.016 172.866 70.692 172.578 70.428C172.314 70.14 171.99 69.996 171.606 69.996H154.326C153.942 69.996 153.606 70.14 153.318 70.428C153.054 70.692 152.922 71.016 152.922 71.4V80.616ZM179.884 93V76.476C179.884 75.684 180.076 74.964 180.46 74.316C180.868 73.644 181.396 73.116 182.044 72.732C182.716 72.324 183.448 72.12 184.24 72.12H195.976V75.072H184.24C183.856 75.072 183.52 75.216 183.232 75.504C182.968 75.768 182.836 76.092 182.836 76.476V93H179.884ZM202.698 93C201.882 93 201.138 92.808 200.466 92.424C199.818 92.016 199.302 91.488 198.918 90.84C198.534 90.168 198.342 89.436 198.342 88.644V65.28H201.294V72.12H210.33V75.072H201.294V88.644C201.294 89.028 201.426 89.364 201.69 89.652C201.978 89.916 202.314 90.048 202.698 90.048H210.33V93H202.698ZM217.283 93C216.491 93 215.759 92.808 215.087 92.424C214.439 92.016 213.911 91.488 213.503 90.84C213.119 90.168 212.927 89.436 212.927 88.644V88.356H215.879V88.644C215.879 89.028 216.011 89.364 216.275 89.652C216.563 89.916 216.899 90.048 217.283 90.048H229.811C230.195 90.048 230.519 89.916 230.783 89.652C231.071 89.364 231.215 89.028 231.215 88.644V85.44C231.215 85.056 231.071 84.732 230.783 84.468C230.519 84.18 230.195 84.036 229.811 84.036H217.283C216.491 84.036 215.759 83.844 215.087 83.46C214.439 83.052 213.911 82.524 213.503 81.876C213.119 81.204 212.927 80.472 212.927 79.68V76.476C212.927 75.684 213.119 74.964 213.503 74.316C213.911 73.644 214.439 73.116 215.087 72.732C215.759 72.324 216.491 72.12 217.283 72.12H229.811C230.627 72.12 231.359 72.324 232.007 72.732C232.679 73.116 233.207 73.644 233.591 74.316C233.999 74.964 234.203 75.684 234.203 76.476V76.764H231.215V76.476C231.215 76.092 231.071 75.768 230.783 75.504C230.519 75.216 230.195 75.072 229.811 75.072H217.283C216.899 75.072 216.563 75.216 216.275 75.504C216.011 75.768 215.879 76.092 215.879 76.476V79.68C215.879 80.064 216.011 80.4 216.275 80.688C216.563 80.952 216.899 81.084 217.283 81.084H229.811C230.627 81.084 231.359 81.288 232.007 81.696C232.679 82.08 233.207 82.608 233.591 83.28C233.999 83.928 234.203 84.648 234.203 85.44V88.644C234.203 89.436 233.999 90.168 233.591 90.84C233.207 91.488 232.679 92.016 232.007 92.424C231.359 92.808 230.627 93 229.811 93H217.283Z" fill="black"/>
</svg>
